<?xml version="1.0" encoding="UTF-8" standalone="no"?>
<!-- Created with Inkscape (http://www.inkscape.org/) -->

<svg
   xmlns:dc="http://purl.org/dc/elements/1.1/"
   xmlns:cc="http://creativecommons.org/ns#"
   xmlns:rdf="http://www.w3.org/1999/02/22-rdf-syntax-ns#"
   xmlns:svg="http://www.w3.org/2000/svg"
   xmlns="http://www.w3.org/2000/svg"
   xmlns:sodipodi="http://sodipodi.sourceforge.net/DTD/sodipodi-0.dtd"
   xmlns:inkscape="http://www.inkscape.org/namespaces/inkscape"
   width="256"
   height="256"
   viewBox="0 0 256 256"
   version="1.1"
   id="SVGRoot"
   inkscape:version="0.92.4 (f8dce91, 2019-08-02)"
   sodipodi:docname="logoMR-V6.svg"
   inkscape:export-filename="/home/maximilien/Downloads/logoMR-v5.png"
   inkscape:export-xdpi="96"
   inkscape:export-ydpi="96">
  <defs
     id="defs3853" />
  <sodipodi:namedview
     id="base"
     pagecolor="#ffffff"
     bordercolor="#666666"
     borderopacity="1.0"
     inkscape:pageopacity="0"
     inkscape:pageshadow="2"
     inkscape:zoom="2.8284271"
     inkscape:cx="157.50274"
     inkscape:cy="120.54457"
     inkscape:document-units="px"
     inkscape:current-layer="layer1"
     showgrid="false"
     inkscape:window-width="1869"
     inkscape:window-height="1026"
     inkscape:window-x="51"
     inkscape:window-y="28"
     inkscape:window-maximized="1"
     inkscape:grid-bbox="true"
     inkscape:showpageshadow="true"
     inkscape:pagecheckerboard="true"
     inkscape:snap-global="true"
     inkscape:snap-nodes="true"
     inkscape:snap-others="false">
    <inkscape:grid
       type="xygrid"
       id="grid3866" />
  </sodipodi:namedview>
  <metadata
     id="metadata3856">
    <rdf:RDF>
      <cc:Work
         rdf:about="">
        <dc:format>image/svg+xml</dc:format>
        <dc:type
           rdf:resource="http://purl.org/dc/dcmitype/StillImage" />
        <dc:title></dc:title>
      </cc:Work>
    </rdf:RDF>
  </metadata>
  <g
     inkscape:label="Layer 1"
     inkscape:groupmode="layer"
     id="layer1"
     transform="translate(0,6)" />
  <g
     inkscape:groupmode="layer"
     id="layer2"
     inkscape:label="Layer 2">
    <path
       style="fill:#2d72d9;fill-opacity:1;stroke:none;stroke-width:0.37792525;stroke-miterlimit:4;stroke-dasharray:none;stroke-opacity:1"
       d="M 11.808594 23.435547 C 5.371565 23.435547 0.18945312 28.617659 0.18945312 35.054688 L 0.18945312 69.912109 L 0.18945312 93.150391 L 0.18945312 116.38867 L 0.18945312 139.62695 L 0.18945312 162.86523 L 0.18945312 186.10352 L 0.18945312 220.96094 C 0.18945312 227.39797 5.371565 232.58008 11.808594 232.58008 C 18.245622 232.58008 23.427734 227.39797 23.427734 220.96094 L 23.427734 186.10352 L 23.427734 162.86523 L 23.427734 139.62695 L 23.427734 116.38867 L 23.427734 93.150391 L 23.427734 69.912109 L 23.427734 58.291016 C 23.427734 51.853984 28.60789 46.673828 35.044922 46.673828 L 46.666016 46.673828 L 58.285156 46.673828 C 64.722187 46.673828 69.904297 51.853988 69.904297 58.291016 L 69.904297 69.912109 L 69.904297 93.150391 L 69.904297 116.38867 L 69.904297 139.62695 L 69.904297 162.86523 L 69.904297 186.10352 L 69.904297 220.96094 C 69.904297 227.39797 75.086409 232.58008 81.523438 232.58008 C 87.960466 232.58008 93.142578 227.39797 93.142578 220.96094 L 93.142578 186.10352 L 93.142578 162.86523 L 93.142578 139.62695 L 93.142578 116.38867 L 93.142578 93.150391 L 93.142578 69.912109 L 93.142578 58.291016 C 93.142578 51.853984 98.324686 46.673828 104.76172 46.673828 L 116.38086 46.673828 L 128 46.673828 C 134.43703 46.673828 139.61914 51.853988 139.61914 58.291016 L 139.61914 69.912109 L 139.61914 93.150391 L 139.61914 116.38867 L 139.61914 139.62695 L 139.61914 162.86523 L 139.61914 186.10352 L 139.61914 220.96094 C 139.61914 227.39797 144.80125 232.58008 151.23828 232.58008 C 157.67531 232.58008 162.85742 227.39797 162.85742 220.96094 L 162.85742 186.10352 L 162.85742 162.86523 L 162.85742 156.01562 L 235.39258 228.55078 C 237.52009 231.01706 240.6638 232.58008 244.19141 232.58008 C 250.62843 232.58008 255.81055 227.39797 255.81055 220.96094 C 255.81055 217.76341 254.5311 214.87813 252.45508 212.78125 L 252.4707 212.76562 L 179.33398 139.62695 L 186.0957 139.62695 L 209.33398 139.62695 L 244.19141 139.62695 C 250.62843 139.62695 255.81055 134.44484 255.81055 128.00781 L 255.81055 93.150391 L 255.81055 69.912109 L 255.81055 35.054688 C 255.81055 28.617659 250.62843 23.435547 244.19141 23.435547 L 209.33398 23.435547 L 186.0957 23.435547 L 162.85742 23.435547 L 139.61914 23.435547 L 116.38086 23.435547 L 93.142578 23.435547 L 69.904297 23.435547 L 46.666016 23.435547 L 11.808594 23.435547 z M 174.47656 46.673828 L 186.0957 46.673828 L 209.33398 46.673828 L 220.95508 46.673828 C 227.39211 46.673828 232.57227 51.853984 232.57227 58.291016 L 232.57227 69.912109 L 232.57227 93.150391 L 232.57227 104.76953 C 232.57227 111.20656 227.39211 116.38867 220.95508 116.38867 L 209.33398 116.38867 L 186.0957 116.38867 L 174.47656 116.38867 C 168.03952 116.38867 162.85742 111.20656 162.85742 104.76953 L 162.85742 93.150391 L 162.85742 69.912109 L 162.85742 58.291016 C 162.85742 51.853984 168.03952 46.673828 174.47656 46.673828 z "
       id="rect3868-3" />
  </g>
</svg>
